<svg xmlns="http://www.w3.org/2000/svg" xmlns:xlink="http://www.w3.org/1999/xlink" viewBox="0 0 48 48" fill="#FFFFFF">
  <path d="M11.5 6C8.4802259 6 6 8.4802259 6 11.5L6 36.5C6 39.519774 8.4802259 42 11.5 42L36.5 42C39.519774 42 42 39.519774 42 36.5L42 11.5C42 8.4802259 39.519774 6 36.5 6L11.5 6 z M 11.5 9L36.5 9C37.898226 9 39 10.101774 39 11.5L39 36.5C39 37.898226 37.898226 39 36.5 39L11.5 39C10.101774 39 9 37.898226 9 36.5L9 11.5C9 10.101774 10.101774 9 11.5 9 z M 30.486328 15.978516 A 1.50015 1.50015 0 0 0 29.439453 16.439453L24 21.878906L18.560547 16.439453 A 1.50015 1.50015 0 0 0 17.484375 15.984375 A 1.50015 1.50015 0 0 0 16.439453 18.560547L21.878906 24L16.439453 29.439453 A 1.50015 1.50015 0 1 0 18.560547 31.560547L24 26.121094L29.439453 31.560547 A 1.50015 1.50015 0 1 0 31.560547 29.439453L26.121094 24L31.560547 18.560547 A 1.50015 1.50015 0 0 0 30.486328 15.978516 z" fill="#FFFFFF" />
</svg>