<svg xmlns="http://www.w3.org/2000/svg" xmlns:xlink="http://www.w3.org/1999/xlink" viewBox="0 0 50 50" fill="#FFFFFF">
  <path d="M12 3C7.04 3 3 7.04 3 12L3 38C3 42.96 7.04 47 12 47L38 47C42.96 47 47 42.96 47 38L47 12C47 7.04 42.96 3 38 3L12 3 z M 38 8L41 8C41.55 8 42 8.45 42 9L42 12C42 12.55 41.55 13 41 13L38 13C37.45 13 37 12.55 37 12L37 9C37 8.45 37.45 8 38 8 z M 25 10C30.33 10 35.019688 12.8 37.679688 17L42 17L42 37C42 39.76 39.76 42 37 42L13 42C10.24 42 8 39.76 8 37L8 17L12.320312 17C14.980313 12.8 19.67 10 25 10 z M 25 12C17.83 12 12 17.83 12 25C12 32.17 17.83 38 25 38C32.17 38 38 32.17 38 25C38 17.83 32.17 12 25 12 z M 25 16C29.96 16 34 20.04 34 25C34 29.96 29.96 34 25 34C20.04 34 16 29.96 16 25C16 20.04 20.04 16 25 16 z" fill="#FFFFFF" />
</svg>