<svg xmlns="http://www.w3.org/2000/svg" xmlns:xlink="http://www.w3.org/1999/xlink" viewBox="0 0 32 32" fill="#FFFFFF">
  <path d="M8.78125 4L10.4375 9.4375L10.4375 12.96875L11.8125 12.96875L11.8125 9.25L13.4375 4L12.03125 4L11.15625 7.59375L11.09375 7.59375L10.1875 4 Z M 15.21875 6.1875C14.660156 6.1875 14.207031 6.351563 13.875 6.65625C13.542969 6.957031 13.375 7.363281 13.375 7.875L13.375 11.3125C13.375 11.875 13.550781 12.324219 13.875 12.65625C14.199219 12.988281 14.617188 13.15625 15.15625 13.15625C15.714844 13.15625 16.148438 12.976563 16.46875 12.65625C16.785156 12.332031 16.9375 11.910156 16.9375 11.34375L16.9375 7.90625C16.9375 7.402344 16.792969 6.976563 16.46875 6.65625C16.144531 6.335938 15.730469 6.1875 15.21875 6.1875 Z M 18 6.34375L18 11.90625C18 12.304688 18.074219 12.585938 18.21875 12.78125C18.363281 12.976563 18.589844 13.0625 18.875 13.0625C19.105469 13.0625 19.320313 13.015625 19.5625 12.875C19.808594 12.734375 20.054688 12.519531 20.28125 12.25L20.28125 12.96875L21.5 12.96875L21.5 6.34375L20.28125 6.34375L20.28125 11.375C20.167969 11.519531 20.046875 11.65625 19.90625 11.75C19.769531 11.84375 19.652344 11.875 19.5625 11.875C19.449219 11.875 19.363281 11.851563 19.3125 11.78125C19.257813 11.710938 19.21875 11.589844 19.21875 11.4375L19.21875 6.34375 Z M 15.15625 7.34375C15.320313 7.34375 15.464844 7.378906 15.5625 7.46875C15.664063 7.558594 15.6875 7.667969 15.6875 7.8125L15.6875 11.4375C15.6875 11.617188 15.660156 11.746094 15.5625 11.84375C15.460938 11.945313 15.324219 12 15.15625 12C14.996094 12 14.867188 11.941406 14.78125 11.84375C14.691406 11.742188 14.65625 11.617188 14.65625 11.4375C14.65625 11.4375 14.65625 7.8125 14.65625 7.8125C14.65625 7.667969 14.6875 7.558594 14.78125 7.46875C14.875 7.378906 15.003906 7.34375 15.15625 7.34375 Z M 15 14.53125C12.625 14.527344 10.308594 14.558594 8.03125 14.65625C6.441406 14.65625 5.125 15.957031 5.125 17.53125C5.03125 18.777344 4.996094 20.03125 5 21.28125C4.996094 22.527344 5.027344 23.75 5.125 25C5.125 26.578125 6.4375 27.875 8.03125 27.875C10.308594 27.96875 12.625 28.003906 15 28C17.378906 28.003906 19.695313 27.96875 21.96875 27.875C23.5625 27.875 24.875 26.578125 24.875 25C24.96875 23.75 25.003906 22.527344 25 21.28125C25.003906 20.03125 24.972656 18.777344 24.875 17.53125C24.875 15.957031 23.5625 14.65625 21.96875 14.65625C19.695313 14.5625 17.378906 14.527344 15 14.53125 Z M 6.5625 16.59375L10.75 16.59375C10.824219 16.59375 10.875 16.644531 10.875 16.71875L10.875 18C10.875 18.074219 10.824219 18.125 10.75 18.125L9.46875 18.125L9.46875 25.5625C9.46875 25.636719 9.417969 25.6875 9.34375 25.6875L7.96875 25.6875C7.894531 25.6875 7.8125 25.636719 7.8125 25.5625L7.8125 18.125L6.5625 18.125C6.488281 18.125 6.40625 18.074219 6.40625 18L6.40625 16.71875C6.40625 16.644531 6.488281 16.59375 6.5625 16.59375 Z M 15.375 16.59375L16.59375 16.59375C16.667969 16.59375 16.75 16.644531 16.75 16.71875L16.75 19.21875C16.851563 19.125 16.953125 19.0625 17.0625 19C17.269531 18.886719 17.476563 18.8125 17.6875 18.8125C18.117188 18.8125 18.425781 18.964844 18.65625 19.28125C18.875 19.585938 19 20.035156 19 20.59375L19 24.21875C19 24.714844 18.898438 25.105469 18.6875 25.375C18.46875 25.65625 18.152344 25.78125 17.75 25.78125C17.496094 25.78125 17.269531 25.730469 17.0625 25.625C16.953125 25.566406 16.851563 25.496094 16.75 25.40625L16.75 25.5625C16.75 25.636719 16.667969 25.6875 16.59375 25.6875L15.375 25.6875C15.300781 25.6875 15.25 25.636719 15.25 25.5625L15.25 16.71875C15.25 16.644531 15.300781 16.59375 15.375 16.59375 Z M 21.625 18.71875C22.21875 18.71875 22.675781 18.921875 23 19.28125C23.320313 19.636719 23.5 20.128906 23.5 20.78125L23.5 22.46875C23.5 22.542969 23.417969 22.59375 23.34375 22.59375L21.15625 22.59375L21.15625 23.6875C21.15625 24.085938 21.207031 24.238281 21.25 24.3125C21.285156 24.371094 21.371094 24.46875 21.5625 24.46875C21.714844 24.46875 21.820313 24.417969 21.875 24.34375C21.902344 24.304688 21.96875 24.164063 21.96875 23.6875L21.96875 23.21875C21.96875 23.144531 22.019531 23.09375 22.09375 23.09375L23.34375 23.09375C23.417969 23.09375 23.46875 23.144531 23.46875 23.21875L23.46875 23.71875C23.46875 24.421875 23.324219 24.949219 23 25.3125C22.671875 25.679688 22.175781 25.875 21.53125 25.875C20.949219 25.875 20.460938 25.671875 20.125 25.28125C19.792969 24.898438 19.625 24.378906 19.625 23.71875L19.625 20.78125C19.625 20.179688 19.820313 19.695313 20.1875 19.3125C20.554688 18.929688 21.042969 18.71875 21.625 18.71875 Z M 10.71875 18.90625L11.9375 18.90625C12.011719 18.90625 12.09375 18.957031 12.09375 19.03125L12.09375 24.03125C12.09375 24.195313 12.105469 24.257813 12.125 24.28125C12.132813 24.292969 12.148438 24.34375 12.25 24.34375C12.285156 24.34375 12.386719 24.316406 12.53125 24.21875C12.648438 24.140625 12.75 24.050781 12.84375 23.9375L12.84375 19.03125C12.84375 18.957031 12.894531 18.90625 12.96875 18.90625L14.1875 18.90625C14.261719 18.90625 14.3125 18.957031 14.3125 19.03125L14.3125 25.5625L14.34375 25.5625C14.34375 25.636719 14.261719 25.6875 14.1875 25.6875L12.96875 25.6875C12.894531 25.6875 12.84375 25.636719 12.84375 25.5625L12.84375 25.1875C12.683594 25.34375 12.511719 25.46875 12.34375 25.5625C12.078125 25.714844 11.820313 25.78125 11.5625 25.78125C11.238281 25.78125 11.011719 25.667969 10.84375 25.4375C10.683594 25.21875 10.59375 24.914063 10.59375 24.5L10.59375 19.03125C10.59375 18.957031 10.644531 18.90625 10.71875 18.90625 Z M 17.1875 20.125C17.105469 20.109375 17.007813 20.136719 16.90625 20.1875C16.847656 20.214844 16.808594 20.253906 16.75 20.3125L16.75 24.28125C16.824219 24.355469 16.871094 24.402344 16.9375 24.4375C17.011719 24.472656 17.105469 24.46875 17.1875 24.46875C17.34375 24.46875 17.390625 24.425781 17.40625 24.40625C17.445313 24.359375 17.46875 24.25 17.46875 24.03125L17.46875 20.65625C17.46875 20.46875 17.441406 20.339844 17.375 20.25C17.332031 20.191406 17.269531 20.140625 17.1875 20.125 Z M 21.5625 20.15625C21.417969 20.15625 21.308594 20.199219 21.25 20.28125C21.207031 20.339844 21.15625 20.476563 21.15625 20.78125L21.15625 21.3125L21.96875 21.3125L21.96875 20.78125C21.96875 20.480469 21.890625 20.347656 21.84375 20.28125C21.789063 20.203125 21.703125 20.15625 21.5625 20.15625Z" fill="#FFFFFF" />
</svg>